<svg xmlns="http://www.w3.org/2000/svg" viewBox="17 17 66 66" preserveAspectRatio="none" fill="#ffffff">
  <title>avatar-circle</title>
  <path d="M66.79,69.64a1.74,1.74,0,0,1-1-.34,39.16,39.16,0,0,0-7.76-4,17.12,17.12,0,0,1-2.34-1.08,3.38,3.38,0,0,1-1.6-2.27,3.58,3.58,0,0,1,.67-2.66A1.68,1.68,0,0,1,55,59a16.29,16.29,0,0,0,5.3-11.91c0-5.24-3.21-10.87-10.27-10.87S39.73,41.89,39.73,47.12A16.29,16.29,0,0,0,45,59a1.73,1.73,0,0,1,.24.26,3.58,3.58,0,0,1,.67,2.66,3.36,3.36,0,0,1-1.6,2.27A17,17,0,0,1,42,65.3a39.6,39.6,0,0,0-7.67,3.93,1.75,1.75,0,1,1-2-2.84,42.49,42.49,0,0,1,8.36-4.32c.66-.28,1.4-.59,1.7-.74a19.81,19.81,0,0,1-6.12-14.21C36.23,40,41,32.75,50,32.75S63.77,40,63.77,47.12a19.81,19.81,0,0,1-6.12,14.21c.3.16,1,.47,1.7.74a42,42,0,0,1,8.47,4.4,1.75,1.75,0,0,1-1,3.16Zm-9.34-8.44Zm-14.9,0ZM50,82.75A32.75,32.75,0,1,1,82.75,50,32.79,32.79,0,0,1,50,82.75Zm0-62A29.25,29.25,0,1,0,79.25,50,29.28,29.28,0,0,0,50,20.75Z"/></svg>