<svg xmlns="http://www.w3.org/2000/svg" viewBox="0 0 100 100">
<title>bell</title>
<path d="M50,83.25a8.63,8.63,0,0,1-8.62-8.62,1.75,1.75,0,0,1,3.5,0,5.12,5.12,0,0,0,10.24,0,1.75,1.75,0,0,1,3.5,0A8.63,8.63,0,0,1,50,83.25Zm28.13-16.8V61.7c0-3.32-2.82-5.62-4.89-7.31a15.38,15.38,0,0,1-1.64-1.45,94.68,94.68,0,0,1-.33-10.76A21.25,21.25,0,0,0,56.36,21.89a6.5,6.5,0,0,0-12.71,0A21.36,21.36,0,0,0,28.73,42.2a94.82,94.82,0,0,1-.33,10.74,15.37,15.37,0,0,1-1.64,1.45c-2.06,1.68-4.89,4-4.89,7.31v4.75a1.75,1.75,0,0,0,1.75,1.75H76.38A1.75,1.75,0,0,0,78.13,66.45ZM25.37,61.7c0-1.66,2-3.29,3.6-4.59a12.57,12.57,0,0,0,2.42-2.33c.3-.44.94-1.36.83-12.6A17.85,17.85,0,0,1,45.3,25.05,1.85,1.85,0,0,0,47,23v0a3,3,0,0,1,6,0v0a1.84,1.84,0,0,0,1.72,2A17.75,17.75,0,0,1,67.77,42.17c-.1,11.25.53,12.17.84,12.61A12.52,12.52,0,0,0,71,57.11c1.6,1.31,3.6,2.94,3.6,4.59v3H25.37Z"/></svg>
